<svg xmlns="http://www.w3.org/2000/svg" data-name="Layer 1" viewBox="0 0 100 125" x="0px" y="0px">
    <path
          fill="rgb(34,197,94)"
          d="m50,80.65c16.9,0,30.65-13.75,30.65-30.65s-13.75-30.65-30.65-30.65-30.65,13.75-30.65,30.65,13.75,30.65,30.65,30.65Zm0-57.59c14.85,0,26.94,12.09,26.94,26.94s-12.09,26.94-26.94,26.94-26.94-12.09-26.94-26.94,12.09-26.94,26.94-26.94Z" />
    <path
          fill="rgb(34,197,94)"
          d="m10.34,48.1c-.59.84-.39,2,.45,2.59l.42.3c.02.84.07,1.68.14,2.51-.35.18-.64.46-.83.83-.45.92-.07,2.03.85,2.48l.46.22c.15.83.33,1.65.53,2.47-.31.23-.56.55-.68.95-.3.98.25,2.02,1.23,2.32l.48.15c.28.8.59,1.58.92,2.35-.27.27-.47.63-.53,1.04-.14,1.02.56,1.96,1.58,2.1l.5.07c.4.74.83,1.46,1.28,2.17-.23.32-.37.7-.37,1.13.02,1.01.84,1.83,1.86,1.83h.56c.51.65,1.04,1.3,1.59,1.92-.18.35-.26.76-.19,1.18.16.9.94,1.54,1.83,1.54.11,0,.21-.01.32-.03l.53-.09c.6.57,1.22,1.13,1.86,1.67-.12.37-.14.79,0,1.19.26.77.98,1.25,1.76,1.25.2,0,.4-.03.6-.1l.5-.17c.69.47,1.39.93,2.11,1.36-.06.39-.01.79.19,1.16.33.63.98.99,1.64.99.29,0,.59-.07.87-.22l.45-.24c.76.36,1.53.69,2.31,1.01,0,.39.11.78.37,1.12.36.48.92.74,1.48.74.39,0,.78-.12,1.12-.37l.4-.3c.8.24,1.62.45,2.44.64.06.38.24.75.54,1.04.36.35.83.52,1.29.52s.97-.19,1.34-.57l.35-.37c.83.11,1.66.19,2.51.25.12.37.35.71.69.95.32.23.7.34,1.06.34.59,0,1.16-.28,1.52-.79l.3-.42c.84-.02,1.68-.07,2.51-.14.18.35.46.64.83.83.26.13.54.19.81.19.69,0,1.35-.38,1.67-1.04l.22-.46c.83-.15,1.65-.33,2.47-.53.23.31.55.56.95.68.18.06.36.08.54.08.79,0,1.53-.51,1.77-1.31l.15-.48c.8-.28,1.58-.58,2.35-.92.27.27.63.47,1.05.53.09.01.18.02.26.02.91,0,1.71-.67,1.84-1.6l.07-.5c.74-.4,1.46-.83,2.16-1.28.31.23.69.37,1.1.37h.03c1.03-.02,1.84-.86,1.83-1.89v-.53c.65-.51,1.29-1.04,1.92-1.58.26.14.55.22.86.22.11,0,.21-.01.32-.03,1.01-.18,1.68-1.14,1.51-2.15l-.09-.53c.57-.6,1.13-1.22,1.66-1.86.19.06.38.1.59.1s.4-.03.6-.1c.97-.33,1.49-1.39,1.15-2.36l-.17-.5c.48-.69.93-1.4,1.36-2.12.1.02.19.04.29.04.29,0,.59-.07.87-.22.91-.48,1.25-1.6.77-2.51l-.24-.45c.36-.75.69-1.53,1.01-2.31,0,0,0,0,0,0,.39,0,.78-.12,1.12-.37.82-.62.98-1.78.37-2.6l-.3-.4c.24-.8.45-1.62.64-2.44.38-.06.75-.24,1.04-.54.71-.74.69-1.91-.05-2.63l-.37-.35c.11-.83.19-1.67.25-2.51.37-.12.71-.35.95-.69.59-.84.39-2-.45-2.59l-.42-.3c-.02-.85-.07-1.69-.14-2.52.34-.18.64-.45.83-.82.45-.92.07-2.03-.85-2.48l-.46-.22c-.15-.83-.32-1.65-.53-2.46.31-.23.56-.55.68-.95.3-.98-.25-2.02-1.23-2.32l-.48-.15c-.28-.8-.59-1.58-.92-2.35.27-.27.47-.63.53-1.04.14-1.02-.56-1.96-1.58-2.1l-.5-.07c-.4-.74-.83-1.46-1.28-2.17.23-.32.37-.7.37-1.13-.02-1.01-.84-1.83-1.86-1.83h-.56c-.51-.65-1.04-1.3-1.59-1.92.18-.35.26-.76.19-1.18-.18-1.01-1.13-1.68-2.15-1.51l-.53.09c-.6-.57-1.22-1.13-1.86-1.67.12-.37.14-.79,0-1.19-.33-.97-1.39-1.49-2.36-1.15l-.5.17c-.69-.47-1.39-.93-2.11-1.36.06-.39.01-.79-.19-1.16-.48-.9-1.6-1.25-2.51-.77l-.45.24c-.76-.36-1.53-.69-2.31-1.01,0-.39-.11-.78-.37-1.12-.62-.82-1.78-.98-2.6-.37l-.4.3c-.8-.24-1.62-.45-2.44-.64-.06-.38-.24-.75-.54-1.04-.74-.71-1.91-.69-2.63.05l-.35.37c-.83-.11-1.66-.19-2.51-.25-.12-.37-.35-.71-.69-.95-.84-.59-2-.38-2.59.45l-.3.42c-.84.02-1.68.07-2.51.14-.18-.35-.46-.64-.83-.83-.92-.45-2.03-.07-2.48.85l-.22.46c-.83.15-1.65.33-2.47.53-.23-.31-.55-.56-.95-.68-.98-.3-2.02.25-2.32,1.23l-.15.48c-.8.28-1.58.58-2.35.92-.27-.27-.63-.47-1.05-.53-1.02-.14-1.95.56-2.1,1.58l-.07.5c-.74.4-1.46.83-2.16,1.28-.31-.23-.7-.36-1.13-.37-1.03.02-1.84.86-1.83,1.89v.53c-.65.51-1.29,1.04-1.92,1.59-.35-.18-.76-.26-1.18-.19-1.01.18-1.68,1.14-1.51,2.15l.09.53c-.57.6-1.13,1.22-1.67,1.86-.37-.12-.79-.14-1.19,0-.97.33-1.49,1.39-1.15,2.36l.17.5c-.47.69-.93,1.39-1.36,2.11-.38-.06-.79-.01-1.16.19-.91.48-1.25,1.6-.77,2.51l.24.45c-.36.76-.69,1.53-1.01,2.31-.39,0-.78.11-1.12.37-.82.62-.98,1.78-.37,2.6l.3.4c-.24.8-.45,1.62-.64,2.44-.38.06-.75.24-1.04.54-.71.74-.69,1.91.05,2.62l.37.35c-.11.83-.19,1.66-.25,2.51-.37.12-.71.35-.95.69Zm4.99-3.56s0,0,0,0c2.63-16.77,17.17-29.63,34.66-29.64,0,0,0,0,0,0,0,0,0,0,0,0,19.35,0,35.09,15.75,35.09,35.1,0,1.86-.15,3.68-.43,5.46,0,0,0,0,0,0-2.63,16.77-17.18,29.64-34.67,29.64-1.85,0-3.67-.15-5.45-.43,0,0-.01,0-.02,0-16.77-2.63-29.63-17.18-29.63-34.67,0-1.86.15-3.68.43-5.46Z" />
    <path
          fill="rgb(34,197,94)"
          d="m37.53,62.54h24.95c.94,0,1.73-.7,1.84-1.63l2.39-19.02c.09-.71-.24-1.41-.84-1.79-.6-.38-1.37-.39-1.98-.01l-8.28,5.14-3.99-6.86c-.33-.57-.94-.92-1.6-.92s-1.27.35-1.6.92l-3.99,6.86-8.28-5.14c-.61-.38-1.38-.37-1.98.01-.6.39-.93,1.08-.84,1.79l2.39,19.02c.12.93.91,1.63,1.84,1.63Zm6.54-13.14c.43.26.94.35,1.43.22.49-.12.9-.43,1.16-.87l3.35-5.75,3.35,5.75c.25.43.67.75,1.16.87.49.12,1,.04,1.43-.22l6.6-4.1-1.7,13.53h-21.67l-1.7-13.53,6.6,4.1Z" />

</svg>