<svg xmlns="http://www.w3.org/2000/svg" version="1.1" viewBox="-5.0 -10.0 110.0 135.0">
      <path
            fill='#f5d926'
            d="m36.551 45.07h-3.8789v-10.727c0.65625-0.17578 1.918-0.30859 3.75-0.30859 4.0117 0 6.7578 1.6562 6.7578 5.4531 0 3.3594-2.5742 5.582-6.6289 5.582zm53.945 4.5977c0 11.145-4.7461 23.371-13.527 31.098-8.6602 7.6172-15.16 9.6992-26.695 9.6992-1.5938 0-3.1523-0.097656-4.6758-0.26953 1.1211 0.10938 2.25 0.17578 3.3984 0.17578h0.007812c10.383 0 19.77-4.582 26.488-11.879 0.875-0.94531 1.6953-1.9375 2.4805-2.9727 5.4062-6.9648 8.6289-15.863 8.6328-25.535l-0.003907 0.003906c0-11.047-4.1992-21.082-11.062-28.383-6.8477-7.2969-16.406-11.875-26.988-11.875-0.14062 0-0.28125 0.015625-0.42188 0.015625 10.348 0.16016 19.688 4.6953 26.406 11.859 6.8594 7.3008 11.062 17.336 11.062 28.383h0.003906c-0.003906 9.6719-3.2227 18.57-8.6328 25.535-0.76953 0.98828-1.5781 1.9375-2.4336 2.8477-6.8438 7.2969-16.402 11.875-26.977 11.875h-0.011719c-1.8828 0.003906-3.7344-0.15234-5.543-0.42969-2.1758-0.39062-4.2656-0.94922-6.2695-1.6719 1.4453 0.53906 2.9258 0.99219 4.4492 1.3438-7.6172-1.582-14.41-5.5586-19.625-11.113-6.8555-7.3008-11.059-17.336-11.059-28.379 0-11.047 4.2031-21.082 11.059-28.383 5.7539-6.1328 13.426-10.332 22.004-11.52 1.043-0.14453 2.1055-0.23047 3.1719-0.28906 1.5195-0.16797 3.0664-0.26172 4.6523-0.26172 5.2891 0 10.27 0.074219 14.789 1.7891 15.207 5.7578 25.32 21.16 25.32 38.336zm-38.027-10.094c0.085938 2.0039 0.17578 4.1875 0.17578 6.8906v22.852h3.7969v-11.469h0.085938c1.2656 2.0938 3.707 3.3164 6.4961 3.3164 4.9727 0 9.6367-3.75 9.6367-11.336 0-6.3672-3.8398-10.684-8.9844-10.684-3.4414 0-5.9727 1.4844-7.4961 4.0586h-0.089844l-0.21875-3.6211zm-4.918-25.688c-9.2266 0.003906-17.594 3.9688-23.727 10.488-6.125 6.5195-9.9492 15.57-9.9492 25.613 0 10.039 3.8242 19.094 9.9492 25.609 4.6641 4.9609 10.625 8.4375 17.273 9.8203 2.2266 0.51562 4.5312 0.79297 6.8984 0.79297 2.8633 0 5.6406-0.39844 8.2891-1.1445-2.6055 0.66406-5.3164 1.0195-8.1094 1.0195-2.25 0-4.4453-0.23047-6.5781-0.66797-6.4219-1.4609-12.18-4.8789-16.715-9.6914-6.1289-6.5195-9.957-15.574-9.9531-25.613 0-10.039 3.8281-19.094 9.9531-25.613 6.1367-6.5195 14.508-10.484 23.742-10.488 1.0273 0 2.0391 0.058593 3.043 0.15234-1.3516-0.17578-2.7227-0.27734-4.1172-0.27734zm-6.0703 32.797v-0.12891c3.0508-1.0469 5.4922-3.6211 5.4922-7.4531 0-2.3125-0.87109-4.3164-2.3125-5.6289-1.7891-1.6094-4.4492-2.3984-8.5039-2.3984-2.5742 0-5.3633 0.26172-7.2812 0.60938v28.996h3.793l0.003906-12.73h3.5742c3.4453 0.13281 5.0586 1.6562 5.9297 5.7148 0.78516 3.6602 1.4375 6.1445 1.918 7.0195h3.9258c-0.60938-1.1328-1.3086-3.9688-2.2656-8.0664-0.69922-3.0547-2.0508-5.1445-4.2734-5.9336zm20.883 11.469c4.0586 0 6.4102-3.3125 6.4102-8.1523 0-4.1836-2.2266-7.8047-6.2773-7.8047-2.6172 0-5.1016 1.832-5.8008 4.7109-0.12891 0.48047-0.26172 1.0469-0.26172 1.5234v3.6641c0 0.56641 0.042968 1.0898 0.17578 1.5703 0.69922 2.6562 3.0078 4.4883 5.7539 4.4883z" />

</svg>